<?xml version="1.0" encoding="utf-8"?>
<!-- Generator: Adobe Illustrator 21.0.2, SVG Export Plug-In . SVG Version: 6.00 Build 0)  -->
<!DOCTYPE svg PUBLIC "-//W3C//DTD SVG 1.1//EN" "http://www.w3.org/Graphics/SVG/1.1/DTD/svg11.dtd">
<svg version="1.1" id="Layer_1" xmlns="http://www.w3.org/2000/svg" xmlns:xlink="http://www.w3.org/1999/xlink" x="0px" y="0px"
	 viewBox="0 0 200 78" style="enable-background:new 0 0 200 78;" xml:space="preserve">
<style type="text/css">
	.st0{fill:#3B5998;}
	.st1{fill:#FFFFFF;}
</style>
<g>
	<path class="st0" d="M193.1,74.7H7.1c-1.7,0-3-1.3-3-3v-64c0-1.7,1.3-3,3-3h186c1.6,0,3,1.3,3,3v64
		C196.1,73.3,194.7,74.7,193.1,74.7z"/>
	<path class="st1" d="M43.7,20.6c-11.4,0-20.7,9.3-20.7,20.7c0,11.4,9.3,20.7,20.7,20.7s20.7-9.3,20.7-20.7
		C64.4,29.9,55.1,20.6,43.7,20.6z M49.2,41.3h-3.6c0,5.7,0,12.8,0,12.8h-5.3c0,0,0-7,0-12.8h-2.5v-4.5h2.5v-2.9c0-2.1,1-5.4,5.4-5.4
		l3.9,0v4.4c0,0-2.4,0-2.9,0c-0.5,0-1.1,0.2-1.1,1.2v2.7h4.1L49.2,41.3z"/>
	<g>
		<path class="st1" d="M83.2,46.4c0.3,0.6,0.7,1,1.2,1.4c0.5,0.4,1.1,0.6,1.7,0.8c0.7,0.2,1.3,0.3,2,0.3c0.5,0,1,0,1.5-0.1
			c0.5-0.1,1.1-0.2,1.5-0.5c0.5-0.2,0.9-0.5,1.2-0.9c0.3-0.4,0.5-0.9,0.5-1.5c0-0.7-0.2-1.2-0.6-1.6c-0.4-0.4-1-0.7-1.6-1
			c-0.7-0.3-1.5-0.5-2.3-0.7c-0.9-0.2-1.7-0.4-2.6-0.7c-0.9-0.2-1.8-0.5-2.7-0.8c-0.9-0.3-1.6-0.8-2.3-1.3s-1.2-1.2-1.6-2
			s-0.6-1.7-0.6-2.8c0-1.2,0.3-2.3,0.8-3.2c0.5-0.9,1.2-1.7,2.1-2.3c0.9-0.6,1.8-1.1,2.9-1.4c1.1-0.3,2.2-0.4,3.3-0.4
			c1.3,0,2.5,0.1,3.7,0.4c1.2,0.3,2.2,0.7,3.1,1.4s1.6,1.4,2.2,2.4c0.5,1,0.8,2.2,0.8,3.6h-5.2c0-0.7-0.2-1.3-0.5-1.8
			s-0.6-0.8-1-1.1s-0.9-0.5-1.5-0.6c-0.6-0.1-1.2-0.2-1.8-0.2c-0.4,0-0.9,0-1.3,0.1c-0.4,0.1-0.8,0.2-1.2,0.5s-0.6,0.5-0.9,0.8
			s-0.3,0.8-0.3,1.3c0,0.5,0.1,0.9,0.3,1.2c0.2,0.3,0.5,0.6,1.1,0.8c0.5,0.2,1.3,0.5,2.2,0.7c0.9,0.2,2.2,0.6,3.7,1
			c0.5,0.1,1.1,0.3,1.9,0.5s1.6,0.6,2.4,1.1c0.8,0.5,1.5,1.2,2.1,2.1c0.6,0.9,0.9,2,0.9,3.3c0,1.1-0.2,2.1-0.6,3.1s-1.1,1.8-1.9,2.5
			c-0.8,0.7-1.9,1.2-3.2,1.6c-1.3,0.4-2.7,0.6-4.4,0.6c-1.3,0-2.6-0.2-3.9-0.5s-2.4-0.8-3.3-1.5c-1-0.7-1.7-1.6-2.3-2.7
			s-0.8-2.4-0.8-3.9h5.2C82.8,45.1,82.9,45.8,83.2,46.4z"/>
		<path class="st1" d="M105.5,28.1v9.1h0.1c0.6-1,1.4-1.8,2.3-2.2c1-0.5,1.9-0.7,2.8-0.7c1.3,0,2.4,0.2,3.2,0.5
			c0.8,0.4,1.5,0.8,2,1.5c0.5,0.6,0.8,1.4,1,2.3c0.2,0.9,0.3,1.9,0.3,3v10.8h-4.8v-9.9c0-1.5-0.2-2.5-0.7-3.2
			c-0.5-0.7-1.3-1.1-2.4-1.1c-1.3,0-2.3,0.4-2.9,1.2c-0.6,0.8-0.9,2.1-0.9,3.9v9.2h-4.8V28.1H105.5z"/>
		<path class="st1" d="M120.6,40.2c0.1-1.1,0.4-2.1,0.9-2.8c0.5-0.7,1.1-1.3,1.9-1.8s1.6-0.8,2.6-1c1-0.2,1.9-0.3,2.9-0.3
			c0.9,0,1.8,0.1,2.7,0.2c0.9,0.1,1.7,0.4,2.5,0.7c0.7,0.4,1.4,0.9,1.8,1.5c0.5,0.6,0.7,1.5,0.7,2.6v9.1c0,0.8,0,1.6,0.1,2.3
			c0.1,0.7,0.2,1.3,0.5,1.6h-4.9c-0.1-0.3-0.2-0.5-0.2-0.8c-0.1-0.3-0.1-0.6-0.1-0.9c-0.8,0.8-1.7,1.3-2.7,1.7
			c-1,0.3-2.1,0.5-3.2,0.5c-0.8,0-1.6-0.1-2.3-0.3s-1.4-0.5-1.9-1c-0.5-0.4-1-1-1.3-1.6c-0.3-0.7-0.5-1.4-0.5-2.3
			c0-1,0.2-1.8,0.5-2.5c0.4-0.6,0.8-1.2,1.4-1.5s1.2-0.7,1.9-0.9s1.4-0.3,2.2-0.5c0.7-0.1,1.4-0.2,2.1-0.3c0.7-0.1,1.3-0.2,1.9-0.3
			s1-0.3,1.3-0.6s0.5-0.6,0.4-1.1c0-0.5-0.1-0.9-0.3-1.2c-0.2-0.3-0.4-0.5-0.7-0.7c-0.3-0.2-0.6-0.3-1-0.3c-0.4-0.1-0.8-0.1-1.2-0.1
			c-1,0-1.7,0.2-2.2,0.6s-0.9,1.1-1,2H120.6z M131.8,43.8c-0.2,0.2-0.5,0.3-0.8,0.4c-0.3,0.1-0.6,0.2-1,0.3
			c-0.4,0.1-0.7,0.1-1.1,0.2c-0.4,0-0.8,0.1-1.2,0.2c-0.4,0.1-0.7,0.2-1.1,0.3c-0.4,0.1-0.7,0.3-0.9,0.5c-0.3,0.2-0.5,0.4-0.6,0.7
			c-0.2,0.3-0.2,0.7-0.2,1.1c0,0.4,0.1,0.8,0.2,1.1c0.2,0.3,0.4,0.5,0.6,0.7c0.3,0.2,0.6,0.3,1,0.4c0.4,0.1,0.7,0.1,1.1,0.1
			c1,0,1.7-0.2,2.2-0.5c0.5-0.3,0.9-0.7,1.2-1.1c0.2-0.4,0.4-0.9,0.5-1.3c0.1-0.5,0.1-0.8,0.1-1.1V43.8z"/>
		<path class="st1" d="M145,34.8V38h0.1c0.2-0.5,0.5-1,0.9-1.5c0.4-0.5,0.8-0.9,1.3-1.2c0.5-0.3,1-0.6,1.6-0.8
			c0.6-0.2,1.2-0.3,1.8-0.3c0.3,0,0.7,0.1,1.1,0.2V39c-0.2,0-0.5-0.1-0.8-0.1c-0.3,0-0.6-0.1-0.9-0.1c-0.9,0-1.6,0.1-2.2,0.4
			c-0.6,0.3-1.1,0.7-1.5,1.2s-0.6,1.1-0.8,1.8c-0.2,0.7-0.2,1.4-0.2,2.2v7.9h-4.8V34.8H145z"/>
		<path class="st1" d="M158.2,48.1c0.7,0.7,1.8,1.1,3.1,1.1c1,0,1.8-0.2,2.5-0.7c0.7-0.5,1.1-1,1.3-1.5h4.2
			c-0.7,2.1-1.7,3.6-3.1,4.5c-1.4,0.9-3.1,1.4-5.1,1.4c-1.4,0-2.6-0.2-3.7-0.7c-1.1-0.4-2.1-1.1-2.8-1.9c-0.8-0.8-1.4-1.8-1.8-2.9
			c-0.4-1.1-0.6-2.4-0.6-3.7c0-1.3,0.2-2.5,0.6-3.7c0.4-1.1,1-2.1,1.8-2.9c0.8-0.8,1.7-1.5,2.8-2c1.1-0.5,2.3-0.7,3.7-0.7
			c1.5,0,2.8,0.3,3.9,0.9c1.1,0.6,2,1.4,2.7,2.3c0.7,1,1.2,2.1,1.5,3.3c0.3,1.2,0.4,2.6,0.3,3.9H157C157,46.3,157.4,47.4,158.2,48.1
			z M163.6,38.9c-0.6-0.6-1.5-1-2.6-1c-0.8,0-1.4,0.1-1.9,0.4c-0.5,0.3-0.9,0.6-1.2,1c-0.3,0.4-0.5,0.8-0.6,1.2
			c-0.1,0.4-0.2,0.8-0.2,1.2h7.9C164.6,40.5,164.2,39.5,163.6,38.9z"/>
	</g>
</g>
</svg>
